<?xml version="1.0" encoding="utf-8"?>
<!-- Generator: Adobe Illustrator 25.1.0, SVG Export Plug-In . SVG Version: 6.00 Build 0)  -->
<svg version="1.1" id="圖層_1" xmlns="http://www.w3.org/2000/svg" xmlns:xlink="http://www.w3.org/1999/xlink" x="0px" y="0px"
	 viewBox="0 0 50 50" style="enable-background:new 0 0 50 50;" xml:space="preserve">
<style type="text/css">
	.st0{fill:#112D4E;}
</style>
<path class="st0" d="M22.2,0h5.7c2.3,0,4.3,1.9,4.3,4.3v41.5c0,2.3-1.9,4.3-4.3,4.3h-5.7c-2.3,0-4.3-1.9-4.3-4.3V4.3
	C17.9,1.9,19.8,0,22.2,0z"/>
<path class="st0" d="M4.3,13.3h5.7c2.3,0,4.3,1.9,4.3,4.3v28.2c0,2.3-1.9,4.3-4.3,4.3H4.3C1.9,50,0,48.1,0,45.7V17.6
	C0,15.2,1.9,13.3,4.3,13.3z"/>
<path class="st0" d="M40.1,23.3h5.7c2.3,0,4.3,1.9,4.3,4.3v18.2c0,2.3-1.9,4.3-4.3,4.3h-5.7c-2.3,0-4.3-1.9-4.3-4.3V27.6
	C35.8,25.2,37.7,23.3,40.1,23.3z"/>
</svg>
