<?xml version="1.0" encoding="utf-8"?>
<!-- Generator: Adobe Illustrator 25.1.0, SVG Export Plug-In . SVG Version: 6.00 Build 0)  -->
<svg version="1.1" id="圖層_1" xmlns="http://www.w3.org/2000/svg" xmlns:xlink="http://www.w3.org/1999/xlink" x="0px" y="0px"
	 viewBox="0 0 50 50" style="enable-background:new 0 0 50 50;" xml:space="preserve">
<style type="text/css">
	.st0{fill:#112D4E;}
</style>
<path class="st0" d="M1.4,1.4L1.4,1.4c1.8-1.8,4.8-1.8,6.6,0l40.7,40.7c1.8,1.8,1.8,4.7,0,6.5l0,0c-1.8,1.8-4.7,1.8-6.5,0L1.4,7.9
	C-0.4,6.1-0.4,3.2,1.4,1.4z"/>
<path class="st0" d="M1.4,48.7L1.4,48.7c-1.8-1.8-1.8-4.8,0-6.6L42.1,1.4c1.8-1.8,4.7-1.8,6.5,0l0,0c1.8,1.8,1.8,4.7,0,6.5L7.9,48.7
	C6.1,50.4,3.2,50.4,1.4,48.7z"/>
</svg>
