<?xml version="1.0" encoding="utf-8"?>
<!-- Generator: Adobe Illustrator 25.1.0, SVG Export Plug-In . SVG Version: 6.00 Build 0)  -->
<svg version="1.1" id="圖層_1" xmlns="http://www.w3.org/2000/svg" xmlns:xlink="http://www.w3.org/1999/xlink" x="0px" y="0px"
	 viewBox="0 0 50 50" style="enable-background:new 0 0 50 50;" xml:space="preserve">
<style type="text/css">
	.st0{fill:#112D4E;}
</style>
<path class="st0" d="M2.4,50C1.1,50,0,48.9,0,47.6V2.3C0.1,0.9,1.1,0,2.4,0c0.1,0,0.1,0,0.2,0c1.1,0.1,2,1,2.1,2.1l0,43.1h43
	c0.7,0.1,1.3,0.4,1.7,0.9c0.4,0.5,0.6,1.1,0.5,1.7c-0.1,1.1-1,2-2.1,2.1c0,0-0.1,0-0.1,0H2.4z"/>
<circle class="st0" cx="26.2" cy="24.3" r="5.6"/>
<circle class="st0" cx="15.1" cy="11" r="5.6"/>
<circle class="st0" cx="40.6" cy="20.3" r="5.6"/>
<circle class="st0" cx="13.2" cy="36.5" r="5.6"/>
<circle class="st0" cx="36.5" cy="36.5" r="5.6"/>
</svg>
