<?xml version="1.0" encoding="utf-8"?>
<!-- Generator: Adobe Illustrator 25.1.0, SVG Export Plug-In . SVG Version: 6.00 Build 0)  -->
<svg version="1.1" id="圖層_1" xmlns="http://www.w3.org/2000/svg" xmlns:xlink="http://www.w3.org/1999/xlink" x="0px" y="0px"
	 viewBox="0 0 90.7 90.7" style="enable-background:new 0 0 90.7 90.7;" xml:space="preserve">
<style type="text/css">
	.st0{fill:#112D4E;}
	.st1{fill:#3F72AF;}
</style>
<g>
	<path class="st0" d="M72.6,39.6h-21l18.2-32c0.5-0.8,0.5-1.8,0-2.5s-1.4-1.2-2.3-1.2H37c-1.1,0-2.1,0.7-2.4,1.8L19.4,51.6
		c-0.5,1.3,0.3,2.7,1.6,3.2c0.3,0.1,0.6,0.1,0.9,0.1h21.5L29.7,87.2c-0.5,1.2-0.1,2.4,1,3.1c1.1,0.7,2.4,0.5,3.2-0.5l40.7-46.1
		c1-1.1,0.9-2.6-0.2-3.6C73.8,39.8,73.2,39.5,72.6,39.6L72.6,39.6z"/>
	<path class="st1" d="M68.7,35.8h-21l18.2-32c0.5-0.8,0.5-1.8,0-2.5S64.6,0,63.6,0H33.2c-1.1,0-2.1,0.7-2.4,1.8L15.6,47.6
		c-0.5,1.3,0.3,2.7,1.6,3.2C17.4,51,17.7,51,18,51h21.5L25.9,83.3c-0.5,1.2-0.1,2.4,1,3.1s2.4,0.5,3.2-0.5l40.7-46.1
		c1-1.1,0.9-2.6-0.2-3.6C70,35.9,69.4,35.7,68.7,35.8L68.7,35.8z"/>
</g>
</svg>
