<?xml version="1.0" encoding="utf-8"?>
<!-- Generator: Adobe Illustrator 25.1.0, SVG Export Plug-In . SVG Version: 6.00 Build 0)  -->
<svg version="1.1" id="圖層_1" xmlns="http://www.w3.org/2000/svg" xmlns:xlink="http://www.w3.org/1999/xlink" x="0px" y="0px"
	 viewBox="0 0 50 50" style="enable-background:new 0 0 50 50;" xml:space="preserve">
<style type="text/css">
	.st0{fill:#00589B;}
</style>
<path class="st0" d="M21.7,13.9c-0.1-1.7,1.2-3.2,2.9-3.3c0.1,0,0.3,0,0.4,0c1.7-0.1,3.2,1.2,3.3,3c0,0.1,0,0.3,0,0.4
	c0.1,1.7-1.2,3.2-2.9,3.4c-0.1,0-0.3,0-0.4,0c-1.7,0.1-3.2-1.2-3.3-3C21.7,14.1,21.7,14,21.7,13.9z M22.3,19.9h5.5v19.6h-5.5V19.9z"
	/>
<g>
	<g>
		<path class="st0" d="M25,0C11.2,0,0,11.2,0,25s11.2,25,25,25s25-11.2,25-25S38.8,0,25,0z M25,45.5C13.7,45.5,4.5,36.3,4.5,25
			S13.7,4.5,25,4.5c11.3,0,20.5,9.2,20.5,20.5C45.5,36.3,36.3,45.5,25,45.5z"/>
	</g>
</g>
</svg>
