<?xml version="1.0" encoding="utf-8"?>
<!-- Generator: Adobe Illustrator 25.1.0, SVG Export Plug-In . SVG Version: 6.00 Build 0)  -->
<svg version="1.1" id="圖層_1" xmlns="http://www.w3.org/2000/svg" xmlns:xlink="http://www.w3.org/1999/xlink" x="0px" y="0px"
	 viewBox="0 0 50 50" style="enable-background:new 0 0 50 50;" xml:space="preserve">
<style type="text/css">
	.st0{fill:#00589B;}
</style>
<g>
	<g>
		<path class="st0" d="M25,0C11.2,0,0,11.2,0,25s11.2,25,25,25s25-11.2,25-25S38.8,0,25,0z M25,45.5C13.7,45.5,4.5,36.3,4.5,25
			S13.7,4.5,25,4.5c11.3,0,20.5,9.2,20.5,20.5C45.5,36.3,36.3,45.5,25,45.5z"/>
	</g>
</g>
<g>
	<g>
		<path class="st0" d="M34.7,17.6c-1.3-5.4-6.7-8.7-12.1-7.4C18.2,11.3,15,15.4,15,20h5c0.2-2.8,2.7-4.8,5.4-4.6
			c2.8,0.2,4.8,2.7,4.6,5.4c-0.5,2.5-2.7,4.2-5.3,4.1c-1.2,0-2.2,1-2.2,2.2l0,0v5.3h5v-2.9C32.8,28.3,36,22.9,34.7,17.6z"/>
	</g>
</g>
<circle class="st0" cx="25" cy="37.5" r="3"/>
</svg>
