<?xml version="1.0" encoding="utf-8"?>
<!-- Generator: Adobe Illustrator 25.1.0, SVG Export Plug-In . SVG Version: 6.00 Build 0)  -->
<svg version="1.1" id="圖層_1" xmlns="http://www.w3.org/2000/svg" xmlns:xlink="http://www.w3.org/1999/xlink" x="0px" y="0px"
	 viewBox="0 0 50 50" style="enable-background:new 0 0 50 50;" xml:space="preserve">
<style type="text/css">
	.st0{fill:#112D4E;}
</style>
<path class="st0" d="M36.8,46.8c-11.3,6.5-25.7,2.6-32.3-8.6c-1.8-3.1-2.8-6.5-3.1-10c-0.1-0.6,0.4-1.1,1-1l2.9,0.1
	c0.8,0,1.2,0.4,1.3,0.9c0.2,2.6,1.1,5.2,2.3,7.5C14,44.4,25.2,47.4,34,42.3S46,26,40.9,17.2C36.1,8.8,25.5,5.6,16.8,10L12,12.7
	l3.7,2.9c0.8,0.6,0.3,1.9-0.7,1.7L3,15.8c-0.6-0.1-1-0.7-0.8-1.3L6.9,3.2c0.4-0.9,1.7-0.7,1.9,0.2l0.7,4.7l3.8-2.3c0,0,0,0,0.1,0
	c0.8-0.4,3.6-1.7,4-1.8c10.7-3.7,22.6,0.7,28.3,10.5C52,25.9,48.1,40.3,36.8,46.8z"/>
</svg>
